<?xml version="1.0" standalone="no"?>
<!DOCTYPE svg PUBLIC "-//W3C//DTD SVG 20010904//EN"
 "http://www.w3.org/TR/2001/REC-SVG-20010904/DTD/svg10.dtd">
<svg version="1.0" xmlns="http://www.w3.org/2000/svg"
 width="122.000000pt" height="129.000000pt" viewBox="0 0 122.000000 129.000000"
 preserveAspectRatio="xMidYMid meet">
<metadata>
Created by potrace 1.16, written by Peter Selinger 2001-2019
</metadata>
<g transform="translate(0.000000,129.000000) scale(0.100000,-0.100000)"
fill="#000000" stroke="none">
<path d="M82 1208 c3 -7 15 -14 29 -16 64 -8 115 -33 139 -69 l25 -37 0 -440
c0 -397 -2 -444 -17 -472 -21 -38 -76 -66 -140 -72 -30 -3 -48 -9 -48 -17 0
-11 101 -13 502 -12 l502 2 8 30 c33 124 65 271 61 279 -3 4 -33 -21 -67 -57
-149 -157 -259 -210 -431 -205 l-100 3 -3 258 -2 257 93 0 c172 0 245 -27 284
-107 10 -21 25 -39 33 -41 13 -2 15 22 15 170 -1 155 -5 185 -25 176 -3 -2
-13 -19 -22 -40 -26 -57 -76 -88 -155 -99 -91 -11 -210 -11 -218 0 -3 6 -8
109 -12 229 l-6 220 24 12 c16 9 52 11 122 7 135 -8 208 -45 348 -174 33 -31
63 -53 66 -49 6 5 -23 141 -54 259 -5 17 -16 18 -206 11 -260 -10 -342 -10
-566 0 -151 6 -182 5 -179 -6z"/>
</g>
</svg>
