<?xml version="1.0" standalone="no"?>
<!DOCTYPE svg PUBLIC "-//W3C//DTD SVG 20010904//EN"
 "http://www.w3.org/TR/2001/REC-SVG-20010904/DTD/svg10.dtd">
<svg version="1.0" xmlns="http://www.w3.org/2000/svg"
 width="37.000000pt" height="129.000000pt" viewBox="0 0 37.000000 129.000000"
 preserveAspectRatio="xMidYMid meet">
<metadata>
Created by potrace 1.16, written by Peter Selinger 2001-2019
</metadata>
<g transform="translate(0.000000,129.000000) scale(0.100000,-0.100000)"
fill="#000000" stroke="none">
<path d="M73 1205 c-3 -9 -3 -266 -1 -573 l5 -557 59 0 59 0 1 455 c0 250 4
472 8 492 7 38 43 68 81 68 12 0 15 13 15 65 0 62 -1 65 -23 65 -13 0 -32 -9
-42 -20 -23 -25 -41 -26 -48 -1 -3 15 -15 19 -56 19 -38 1 -53 -2 -58 -13z"/>
</g>
</svg>
